<?xml version="1.0" encoding="UTF-8"?>
<svg id="Layer_1" xmlns="http://www.w3.org/2000/svg" version="1.1" xmlns:xlink="http://www.w3.org/1999/xlink" viewBox="0 0 1981.25 1981.25">
  <!-- Generator: Adobe Illustrator 29.7.1, SVG Export Plug-In . SVG Version: 2.1.1 Build 8)  -->
  <defs>
    <style>
      .st0 {
        stroke: #23149b;
        stroke-miterlimit: 10;
        stroke-width: 2px;
      }

      .st0, .st1, .st2 {
        fill: #fff;
      }

      .st2 {
        font-family: Impact, Impact;
        font-size: 62.54px;
      }

      .st3 {
        fill: #23149b;
      }

      .st4 {
        fill: #0e0050;
      }
    </style>
    <path id="path" d="M1903.48,990.62c0,504.16-408.7,912.86-912.86,912.86S77.76,1494.78,77.76,990.62,486.46,77.76,990.62,77.76s912.86,408.7,912.86,912.86Z"/>
  </defs>
  <path class="st4" d="M990.62,1981.25c-133.7,0-263.44-26.2-385.62-77.88-117.97-49.9-223.9-121.31-314.86-212.27-90.96-90.96-162.37-196.89-212.27-314.86C26.2,1254.07,0,1124.33,0,990.62s26.2-263.44,77.88-385.62c49.9-117.97,121.31-223.9,212.27-314.86,90.95-90.95,196.89-162.37,314.86-212.27C727.18,26.2,856.92,0,990.62,0s263.44,26.2,385.62,77.88c117.97,49.9,223.9,121.31,314.86,212.27,90.95,90.95,162.37,196.89,212.27,314.86,51.68,122.18,77.88,251.92,77.88,385.62s-26.2,263.44-77.88,385.62c-49.9,117.97-121.31,223.91-212.27,314.86-90.96,90.96-196.89,162.37-314.86,212.27-122.17,51.68-251.92,77.88-385.62,77.88Z"/>
  <path class="st1" d="M990.62,1931.25c-126.97,0-250.16-24.87-366.14-73.93-112.01-47.38-212.6-115.2-298.98-201.57-86.38-86.38-154.2-186.97-201.57-298.98-49.06-115.98-73.93-239.17-73.93-366.14s24.87-250.16,73.93-366.14c47.38-112.01,115.2-212.6,201.57-298.98,86.38-86.38,186.97-154.2,298.98-201.57,115.98-49.06,239.17-73.93,366.14-73.93s250.16,24.87,366.14,73.93c112.01,47.38,212.6,115.2,298.98,201.57,86.38,86.38,154.2,186.97,201.57,298.98,49.05,115.98,73.93,239.17,73.93,366.14s-24.87,250.16-73.93,366.14c-47.38,112.01-115.2,212.6-201.57,298.98-86.38,86.38-186.97,154.2-298.98,201.57-115.98,49.05-239.17,73.93-366.14,73.93Z"/>
  <g>
    <path class="st3" d="M1888.32,1185.4l-838.82-.58c-15.79-68.17-14.6-159.53,63.56-186.27,27.22-9.31,54.87-9.46,83.39-8.68,17.62,14.82,34.9,30.9,55.74,42.15-2.83-7.33-12.5-11.07-18.28-16.26-2.32-2.07-24.77-24.5-23.01-25.92l64.23,5.82,47.13-1.04-168.95-22.1,24.48-12.96-.39-2.32c-49.65,20.53-108.95,14.68-147.92,57.49-14.31-32.18-5.42-53.51,14.48-79.55,22.75-29.77,56.69-58.64,87.43-79.74,73.49,13.09,146.24,35.26,221.57,34.53l-59.91-8.22c-48.56-9.35-97.26-19.66-144.61-33.96-2.71-.82-3.4,1.21-2.8-3.84,46.69-26.58,96.65-46.4,147.11-64.75,23.73,5.61,47.02,14.26,71.72,14.78l-59.49-18.21c42.02-16.86,84.29-34.98,117.06-67.22l-65.22,31.69,10.56-40.28c-9.85,12.58-12.21,28.85-16.81,43.66l-187.65,73.41,38.69-87.99,45.75-6.11-41.3,1.95c-2.64.51-3.6-.07-2.78-2.8,6.74-22.56,20.78-46.58,29.01-68.92l24.67-43.47c-24.19,22.06-41.28,51.65-51.84,82.55-4.24,3.17-10.05-32.97-10.97-36.04l-4.35-42.66c-1,15.63-2.96,31.24-1.92,47.01.88,13.36,10.11,41.04,9.5,49.83-.42,6.06-15.2,40.46-18.79,48.43-8.71,19.34-22.34,45.89-36.01,61.9-17.28,20.24-52.56,31.14-72.8,50.03-2.19-1.27-2.14-2.85-2.78-4.84-5.67-17.61-8.75-54.27-7.75-72.85.45-8.29,3.14-18.55,3.8-26.93.17-2.11,1.41-7.16-1.88-6.67-10.19,40-14.07,81.13-3.73,121.6l-55.79,51.16-17.1-81.79c-1.24-66.13,10.37-132.38,28.5-195.72,41.46-46.88,91.41-85.47,128.69-136.23l-101.68,96.04-21.14,16.28c17.95-54.17,39.83-107.78,46.05-165.08l-13.43,47.98-16.36-11.46-27.74-31.75,39.91,53.4c-26.27,75.47-58.86,151.33-78.21,228.97-4.08,16.38-5.79,34-9.71,49.81-.63,2.53.12,4.88-2.91,6.65-21.81-33.15-41.02-68.21-56.66-104.77-.26-5.13,13.12-23.12,16.39-29.54,13.59-26.73,23.58-56.17,23.94-86.42l-14.99,47.37c-1.43,4.97-29.94,56.7-32.96,54.36-9.03-25.44-20.23-50.18-28.86-75.79-2.92-8.66-11.18-29.04-11.38-36.75-.25-10.04,33.13-49.09,30.59-65.99l-18.38,34.38-16.13,21.28c-11.09-41.15-22.93-82.39-28.84-124.77-3.49.02-2.04,8.24-1.88,10.53,1.52,21.49,7.47,42.9,9.56,64.33l-55.62-41.29c15.58,21.63,38.56,35.74,58.39,52.94l37.55,126.57c-2.01,1.9-45.3-18.02-51.2-20.77-40.94-19.04-85.01-42.01-121.4-68.66-7.5-5.49-14.44-14.42-23.17-17.13,54.1,58.05,128.93,90.29,197.84,127.07l59.37,146.51c-54.16-10.52-104-35.75-151.62-62.4,44.99,38.53,100.84,61.17,155.48,82.55l17.25,89.28c-2.72.53-4.73-.48-7.12-1.5-30.35-12.86-70.17-37.11-99.75-53.84-35.94-20.33-73.34-42.23-107.61-65.17-46.14-30.88-94.23-65.99-126.29-111.75,28.28,61.63,87.77,100.07,143.2,135.15,18.57,11.75,39.09,20.9,55.51,35.66-84.2-10.16-167.02-34.17-245.72-65.24l14.05,8,93.43,33.28,1.94,2.83-46.06,13.44c13.36.23,27.34-1.66,40.25-4.83,4.66-1.15,10.74-5.59,14.95-6.3,8.1-1.36,51.45,13.31,63.4,16.36,39.2,10.01,115.64,21.08,142.51,49.47.78.82,2.62,2.36,1.89,2.89-43.39-2.86-72.57,28.56-110.32,42.32l-75.89,17.19,71.01-7.64-54.68,40.32c44.68-15.69,87.54-50.91,133.38-62.44,69.82-17.56,101.46,28.09,105.59,92.19,3.03,46.98-1.02,97.54-13.68,142.76l-852.12.23c-2.87-22.93-8.21-45.48-11.26-68.41C-.17,512.48,508.82,1.65,1113.67,80.13c250.7,32.53,481.41,174.02,626.73,379.24,147.5,208.29,204.28,475.33,147.92,726.04ZM1026.56,291.02c10.07-15.69,7.26-30.18-6.68-42.19-13.7,11.92-10.2,35.47,6.68,42.19ZM955.53,289.11c4.54-13.99,2.71-24.95-9.7-33.47-6.41-4.4-12.22-8.44-13.41,1.71-1.96,16.67,8.34,26.93,23.11,31.76ZM1052.51,260.35c-24.51,26.77-10.36,67.65,17.06,86.26,25.42-28.01,8.09-64.94-17.06-86.26ZM911.39,266.07c-25.22,7.37-38.77,34.18-30.69,59.51,26.16-6.59,37.57-34.28,30.69-59.51ZM999.68,269.92c-2.6-1.79-15.88,12.65-18.04,15.51-16.14,21.45-14.07,49.76,1.75,70.83,30.71-21.02,34.71-54.91,16.28-86.34ZM1120.66,277.58c-23.26-.36-36.09,22.9-28.78,44.17,23.59-4.76,32.22-20.85,28.78-44.17ZM791.61,279.64c-21.75,27.18-12.03,65.22,17.12,82.03,23.19-25.34,12.81-67.61-17.12-82.03ZM871.08,308.3c1.68-12.43-1.3-26.35-15.34-28.78-1.75,11.73,3.22,25.28,15.34,28.78ZM1173.44,289.15c-13.6,20.07,1.78,40.89,19.23,51.7,14.27-20.19-1.59-40.66-19.23-51.7ZM839.41,292.98c-14.85,12.53-15.26,34.24-1.9,47.96,16.2-11.24,16.58-35.23,1.9-47.96ZM947.87,294.87c-20.26.32-35.19,16-32.61,36.47,19.16-2.31,34.65-16.12,32.61-36.47ZM744.45,296.84c-7.25,18,3.56,30.77,20.12,36.33,9.62-15.79-1.97-34.96-20.12-36.33ZM1148.85,312.37c-25.99,20.16-23.7,57.82-2.28,80.38,16.87-13.97,22.95-28.58,20-50.68-.85-6.39-9.99-31.78-17.72-29.7ZM1227.56,312.37c-5.98,1.63-15.56,17.43-16.5,23.93-1.73,12.03,1.3,28.58,10.37,37.03,16.57-10.33,20.86-25.05,17.38-44-.91-4.94-4.81-18.72-11.26-16.96ZM704.24,321.9c-14.81,30.03-9.8,59,20.02,76.25,20.73-23.36,11.6-68.22-20.02-76.25ZM1114.89,329.43c-21.59,1.4-39.83,15.04-36.47,38.4,22.85,1.46,39.75-15.3,36.47-38.4ZM866.3,331.39c-30.03,14.64-52.57,49.83-36.45,82.51,31.58-13.37,51.8-50.04,36.45-82.51ZM1036.21,335.18c-6.22,19.13,3.78,31.76,20.15,40.27,12.33-15.59-3.57-36.3-20.15-40.27ZM754,340.94c-11.34,33.61.98,65.24,35.37,76.73,19.12-31.01-3-68.07-35.37-76.73ZM972.83,383.17c3.54-23.51-14.31-39.77-36.42-42.21-5.25,23.61,15.16,38.62,36.42,42.21ZM915.23,342.86c-25.52,5.8-38.34,34.84-30.69,59.52,25.02-8.1,38.44-33.94,30.69-59.52ZM1270.41,346.7c-18.59-1.93-29.93,10.45-26.89,28.81,18.53,2.02,28.49-11.1,26.89-28.81ZM1192.65,350.58c-12.86,13.57-8.43,31.49,5.6,42.12,15.84-12.31,8.12-31.76-5.6-42.12ZM1026.58,354.37c-4.58-4.93-26.54,16.62-29.17,21.7-3.27,6.32-6.51,34.71-.52,35.9,25.62-7.67,35.7-32.57,29.7-57.6ZM692.55,388.95c2.87-20.93-12.19-30.06-30.71-32.64-3.45,20.46,10.9,33.74,30.71,32.64ZM1130.26,367.84c-23.05-5.85-44,6.98-47.99,30.69,23.39,3.02,43.29-6.52,47.99-30.69ZM1280.17,440.66c29.23-10.36,24.78-47.28,6.59-66.96-29.06,16.05-21.97,43.51-6.59,66.96ZM1035.38,379.39c-2.79.86-4.35,7.87-4.75,10.68-2.67,18.65,6.71,30.23,21.9,39.13,7.72-8.5,8.17-20.5,3.82-30.67-2.01-4.69-16.27-20.61-20.97-19.15ZM658.03,381.27c-10.01,14.07-15.42,31.49-2.89,46.06,15.15-8.01,20.7-39.52,2.89-46.06ZM1216.66,404.28c18.17,5,40.94,3.55,46.06-18.13-18.51-11.2-39.17-1.17-46.06,18.13ZM1178.02,389.19c-6.9-4-16.69,16.52-16.91,21.98s6.78,26.38,12.55,27.6c21.25-11.05,15.63-33.11,4.36-49.58ZM1322.47,427.09c20.11-2.21,13.85-28.72,2.42-38.04-16.21,7.8-10.25,26.02-2.42,38.04ZM612.09,390.98c-17.84,28.05-18.97,63.71,12.34,82.31,21.79-24.39,20.06-68.73-12.34-82.31ZM978.6,417.72c-4.55-19.49-18.88-27.69-38.39-26.85-.06,20.1,20.68,29.32,38.39,26.85ZM926.75,392.78c-19.19-.18-34.16,17.77-32.62,36.47,19.4-2.37,35.67-15.31,32.62-36.47ZM1080.34,436.93c20.01,2.66,44.35-8.1,45.25-30.78-19.6-7.62-46.35,8.52-45.25,30.78ZM755.17,406.33c-11.05,1.91-7.78,28.52,3.61,32.49,10.71-5.56,6.82-34.3-3.61-32.49ZM671.43,417.75c2.08,22.6,36.44,23.41,51.82,14.3-7.18-22.26-33.36-20.23-51.82-14.3ZM1212.92,431.06c17.02,8.3,39.85,8.16,49.81-10.4-13.54-11.69-46.13-9.65-49.81,10.4ZM880.66,454.23c7.53-19.74-9.77-36.83-28.76-38.4-3.22,21.16,8.69,34.38,28.76,38.4ZM945.95,421.59c-27.06.35-48.32,25.04-46.05,51.82,26.65-4.77,45.4-24.24,46.05-51.82ZM1144.66,421.61c-17.93,16.82-11.34,42.85,7.46,55.54,19-17.64,9.22-40.71-7.46-55.54ZM1047.69,473.41c7.76-22.42-5.82-45.58-28.71-49.87-8.37,23.37,6.37,43.52,28.71,49.87ZM1369.34,423.85c-20.34,3.55-29.4,16.87-22.28,37.22,21.88,3.85,31.6-19.97,22.28-37.22ZM779.95,427.37c-10.9,7.67-15.49,22.04-5.75,32.61,11.97-4.57,18.13-25.95,5.75-32.61ZM984.36,452.28c.72-14.48-13.84-23.43-26.86-24.16-12.97-.72.74,15.97,5.83,19.27,6.21,4.03,13.72,5.5,21.02,4.88ZM659.89,433.1c-17.94,4.17-25.63,25.35-19.15,42.22,17.94-4.17,25.63-25.35,19.15-42.22ZM590.8,471.5c3.3-22.79-11.32-33.93-32.7-33.73-9.21,22.73,11.72,36.61,32.7,33.73ZM1317.79,439.08c-2.8.76-9.46,8.98-11.28,11.88-14.11,22.47-6.61,47.5,9.01,66.57,21.4-17.04,24.98-36.09,15.33-61.37-1.8-4.7-7.15-18.7-13.06-17.09ZM1247.36,448.48c-20.38-9.37-37.93-8.09-51.79,10.53,15.48,11.42,44.12,9.74,51.79-10.53ZM1258.89,481.1c19.51,1.72,36.14-16.71,28.92-35.68-22.13-1.56-32.31,14.87-28.92,35.68ZM797.17,446.57c-10.8,10.12-13.24,29.41,1.87,36.45,11.03-12.3,11.13-25.7-1.87-36.45ZM1122.59,446.54c-21.99-3.57-43.5,9.14-44.16,32.62,21.62,3.32,43.71-9.19,44.16-32.62ZM692.54,454.23c5.82,22.73,36.33,24.25,53.77,14.34-9.84-21.94-33.89-20.69-53.77-14.34ZM845.37,452.38c-4.53,1.34-3.59,17.76-2.96,21.87,1.89,12.16,16.86,23.56,28.75,25.25,8.34-14.01,2.69-31.09-9.8-40.36-2.68-1.99-13.15-7.6-15.99-6.76ZM957.47,452.29c-18.1,1.26-28.29,26.83-16.33,40.23,16.17-9.11,22-22.02,16.33-40.23ZM995.87,473.4c-1.13-14.66-19.23-16.64-30.7-13.42,3.5,12.94,19.38,14.6,30.7,13.42ZM668.55,465.77c-14.18,12.61-20.63,32.55-3.84,46,14.07-11.65,18.25-32.82,3.84-46ZM1006.43,465.73v1.92c1.25-.64,1.25-1.28,0-1.92ZM1124.73,467.9c-.53.31-4.79,9.53-5.17,11.13-2.8,12.02,2.21,23.34,13.35,28.84,15.65-6.08,2.64-46.18-8.18-39.97ZM1395.2,469.56c-29.19-4.52-54.54,18.11-45.81,47.72,30.98,2.9,50.45-16.35,45.81-47.72ZM572.6,473.42c-21.64,22.79-29.73,57.35-3.88,80.57,23-19.81,30.14-60.62,3.88-80.57ZM1195.03,477.72c-7.51,1.3-15.2,6.75-20.57,12.01,8.07,12.45,50.96,10.8,53.7-1.96,1.86-8.66-26.7-11.16-33.12-10.05ZM522.84,479.3c-15.3,17.86-11.03,42.62,11.2,51.67,14.88-18.15,11.93-43.12-11.2-51.67ZM932.51,481.1c-23.11-.68-40.74,19.32-38.38,42.22,22.75-2.42,38.79-18.98,38.38-42.22ZM769.35,498.36c-2.17-17.49-22.92-17.03-36.49-13.41,2.43,17.33,22.92,16.61,36.49,13.41ZM949.81,519.48c16.65-.81,35.65-19.9,25.94-36.38-17.33,5.41-28.82,17.13-25.94,36.38ZM1429.46,485.21c-20.06-2.78-32.13,10.58-28.52,30.45,18.86,3.25,34.69-12.04,28.52-30.45ZM1283.85,488.78c-30.19-7.9-56.4,2.76-65.19,33.61,26.2,13,61.46-3.06,65.19-33.61ZM1114.91,492.62c-20.9-4.48-46.51,2.75-49.94,26.86,20.47,4.28,47.58-3.26,49.94-26.86ZM691.73,492.68c-17.2,13.71-21.17,39.49-2.07,53.65,16.08-13.35,21.03-40.65,2.07-53.65ZM1024.67,515.63c-7.73-17.46-25.09-20.35-42.22-17.25,4.1,17.9,26.9,22.02,42.22,17.25ZM631.12,515.63c3.4-21.3-48.06-24.21-30.76-4.74,7.77,8.75,20.65,7.21,30.76,4.74ZM796.22,523.31c-3-16.65-23.06-17.79-36.47-13.41,2.4,17.32,22.93,16.61,36.47,13.41ZM1212.75,517.66c-20.03-10.64-41.54-11.2-57.5,6.63,11.72,9.29,29.64,12.43,43.58,7.14,3.87-1.47,17.26-8.79,13.91-13.77ZM726.87,515.9c-6.38-3.69-16.11,14.97-16.91,20.02-1.72,10.83.8,21.75,8.59,29.63,18.05-11.1,20.75-32.75,8.32-49.65ZM986.27,521.4c-19.59.25-32.79,15.31-32.63,34.55,19.41,1.39,36.32-14.59,32.63-34.55ZM1296.35,525.65c-13.48-1.08-18.42,32.36-5.81,39.83,16.84-2.14,16.84-38.95,5.81-39.83ZM1424,525.24c-30.19-3-51.01,14.69-46.09,46.09,31.67,3.53,50.88-13.81,46.09-46.09ZM481.39,527.17c-8.31,27.64,5.15,50.3,34.67,49.12,11.32-27.57-7.16-47.39-34.67-49.12ZM619.13,529.59c-3.08.12-18.49,3.52-18.69,6.2,9.05,18.18,31.51,21.04,47.96,11.49-3.9-12.15-17.3-18.16-29.27-17.69ZM1070.02,529.19c-15.02,13.27-8.68,31.35,5.53,42.09,12.21-13.02,10.21-33.19-5.53-42.09ZM1306.87,565.54c28.15,7.8,56.74,1.35,64.99-29.8-27.09-13.61-59.89-1.75-64.99,29.8ZM797.45,533.61c-2.75.11-16.6,3.75-16.55,6.04,8.86,11.41,25.48,13.37,36.43,3.81,1.35-5.74-15.52-10.02-19.88-9.85ZM920.9,582.75c10.61-18.63,6.8-43.88-15.16-49.74-11.13,18.7-6.96,43.59,15.16,49.74ZM1258.88,536.78c-15.62-6.27-37.24-5.79-42.23,13.39,16.15,5.95,35.31,4.59,42.23-13.39ZM752.32,537.05c-.94.54-7.9,13.01-8.54,15.43-3.76,14.15-.85,30.87,12.81,37.89,9.29-6.8,13.97-20.26,12.81-31.55-.57-5.53-10.16-25.75-17.08-21.77ZM1464.31,536.76c-18.56-2.29-37.84,2.44-36.24,24.73,18.44,7.32,39.05-3.58,36.24-24.73ZM1191.69,559.78c-12.32-15.51-42.78-17.92-58.95-8.05-13.75,8.4-1.73,8.78,6.58,13.41,19.12,8.45,34.8,3.01,52.36-5.36ZM1262.83,586.59c4.39,3.02,13.82-8.34,14.84-12.78,2.5-10.86-1.99-34.72-14.98-20.75-9.97,10.72-4.58,22.01.14,33.53ZM556.04,586.5c6.63-15.07-6.69-25.18-20.96-25.85-7.58,15.64,5.83,26.7,20.96,25.85ZM599.44,561.76c-13.5,8.5-25.01,27.57-13.41,42.2,15.28-8.14,24.99-26.8,13.41-42.2ZM617.69,573.27c-2.66,3.84,7.43,7.59,9.95,8.25,15.95,4.16,32.23.6,43.76-11.16-17.23-16.26-36.22-6.85-53.71,2.92ZM793.55,561.82c-17.55,15.74-12.87,46.7,9.19,55.45,15.79-17.85,12.06-43.89-9.19-55.45ZM1253.1,569.44c-16.21-7.15-35.47-5.2-44.13,11.45,14.74,6.07,40.36,7.64,44.13-11.45ZM1003.55,569.41c-22.28-3.13-45.41,4.58-49.91,28.77,20.32,6.14,46.87-6.31,49.91-28.77ZM1393.42,603.8c24.7,9.34,55.19,2.84,58.56-26.82-24.32-12.95-56.81-2.96-58.56,26.82ZM1101.47,596.25c21.45,9.02,47.78,9.23,63.34-10.51-19.83-14.09-49.6-9.96-63.34,10.51ZM1285.77,592.41c14.32,5.32,34.77,8.17,42.24-8.57-1.01-4.52-19.2-7.31-23.84-6.69s-22.22,9.75-18.4,15.26ZM1370.13,577.14c-24.03,2.14-33.05,19.83-26.72,42.11,24.58.27,34.3-19.78,26.72-42.11ZM510.16,609.69c-5.68-28.2-38.57-32.75-61.38-22.07,10.04,25.93,37.06,29.91,61.38,22.07ZM888.39,584.76c-9.76,22.87,3.57,42.5,25.81,49.89,13.7-21.66-4.41-43.45-25.81-49.89ZM667.08,589.06c-7.83,1.33-16.34,7.14-22.49,12.01,14.28,14.67,40.25,9.85,53.68-3.84-7.49-8.66-20.33-10.03-31.19-8.18ZM831.73,594.41c-12.18,8.63-12.15,27.76,0,36.39,11.1-10.05,12.79-27.1,0-36.39ZM1241.61,596.3c-16.7-5.45-37.86-.55-40.32,19.17,18.33,3.58,33.71-.2,40.32-19.17ZM1462.42,653.88c29.43-7.03,35.78-36.27,18.28-59.07-30.8,7.8-30.19,34.73-18.28,59.07ZM612.88,596.32c-16.71,10.47-30.23,30.98-17.29,49.83,17.47-10.22,30.13-30.61,17.29-49.83ZM1287.16,602.49c-3.41.63-15.78,6.04-14.83,10.08,14.19,10.61,33.34,11.68,46.03-1.9-8.6-7.27-20.11-10.22-31.2-8.18ZM565.84,625.05c-4.55-22.16-25.47-23.45-44.16-19.16,1.9,23.39,26.17,23.93,44.16,19.16ZM1412.49,651.97c21.88-2.55,35.27-20.33,25.02-41.47-24.64.25-31.69,20.04-25.02,41.47ZM1120.66,615.5c-21.59-7.96-50.99-6.16-61.42,17.23,16.53,5.61,32.39,5.84,47.85-2.99,2.48-1.42,15.81-11.22,13.57-14.24ZM734.78,617.42c-20.01-8.72-39.83-2.59-51.83,15.31,18.66,8.52,40.4,1.15,51.83-15.31ZM1178.25,648.1c1.07-19.43-17.03-31.02-34.54-32.62-.41,18.78,16.77,32.23,34.54,32.62ZM1393.31,653.85c14.99-4.55,12.54-20.64,5.4-31.34-9.75-14.61-16.21-.77-15.12,11.21.8,8.85,6.95,12.5,9.72,20.14ZM514.01,650.03c1.5-22.12-19.16-30.87-38.4-28.79.66,22.28,17.7,31.32,38.4,28.79ZM982.43,623.16c-23.51-2.32-46.75,13.18-46.06,38.38,24.21-.35,43.16-13.47,46.06-38.38ZM1328.16,682.52c30.09-1.19,47.1-28.61,34.5-56.66-30.12.44-45.67,29.42-34.5,56.66ZM1256.97,640.41c13.73,5.76,35.14,11.26,44.07-4.58-11.1-11.88-38.02-12.98-44.07,4.58ZM631.09,628.91c-18.01,8.72-31.53,31.74-18.23,49.82,18.07-10.72,27.68-29.67,18.23-49.82ZM467.93,646.17c-1.66-16.73-26.16-16-36.42-6.71,7.76,14.62,23.15,10.96,36.42,6.71ZM745.84,637.1c-13.58,1.94-52.79,24.14-21.39,28.06,15.24,1.9,26.14-.48,38.96-8.58,3.38-2.14,15.44-10.06,12.72-14.29-3.66-5.69-23.91-6.1-30.3-5.19ZM575.45,665.38c-3.6-25.43-26.92-27.58-48.02-23.02,1.09,25.22,27.97,27.83,48.02,23.02ZM1076.53,709.55c19.83-5.81,38.32-16.7,40.37-39.28.4-4.44,1.26-22.93-3.1-23.97-31.44,6.22-46.2,32.59-37.27,63.25ZM1171.83,662.21c-6.72-7.21-18.75-10.87-28-13.37l-3.95,2.23c2.77,20.59,21.29,36.96,42.21,35.42-1.44-7.93-4.7-18.31-10.26-24.28ZM700.23,690.35c2.54-27.41-22.92-42.52-48-40.33-1.29,26.57,23.92,40.58,48,40.33ZM1312.62,650.03c-18.42,3.09-24.69,24.72-12.26,38.26,18.48-5.95,18.15-22.67,12.26-38.26ZM1433.52,655.84c-15.71-3.85-25.7,25.75-17.34,31.78,12.18,8.77,26.24-21.35,17.34-31.78ZM529.37,678.82c-2.52-20.92-21.74-20.58-38.41-17.26,1.99,19.86,22.33,21.86,38.41,17.26ZM757.82,684.57c24.82,10.26,49.9,4.22,67.15-16.3-14.55-10.96-33.75-9.68-49.31-1.35-2.96,1.58-20.43,14.3-17.84,17.65ZM1283.75,659.7c-18.41,2.17-29.21,25.22-19.52,41.61,3.73,6.31,6.07,5.14,11.83,1.4,15.84-10.27,13.37-27.41,7.69-43.01ZM423.77,661.54c-2.43,22.51,15.26,34.68,35.8,36.3,11.66.92,11.63-2.62,8.96-12.9-5.55-21.4-25.17-24.96-44.76-23.4ZM1462.38,682.65c15.9,4.67,29.57.49,34.32-16.36-13.49-11.03-33.96-.84-34.32,16.36ZM633.67,669.89c-10.53,9.31-13.91,28.48-1.39,37.64,15.13-8.82,15.51-26.52,6.42-40.21-.42-.3-4.17,1.8-5.04,2.56ZM1247.34,671.15c-13.53,2.95-20.67,16.21-17.09,29.48,2.66,9.85,6.61,12.09,14.52,4.41,9.77-9.5,6.72-22.49,2.56-33.89ZM729.12,673.16c-9.62,17.45-7.09,35.68,12.25,44.04,12.78-14.47,8.14-41.28-12.25-44.04ZM585.04,703.78c-1.07-26.24-28.64-31.12-49.87-24.88,3.67,25.17,28.25,30.4,49.87,24.88ZM853.8,676.92c-19.32.14-35.16,17.08-32.62,36.47,19.18-.1,33.39-17.9,32.62-36.47ZM1402.86,680.75c-19.14-.25-24.57,16.26-19.09,32.55,18.36.09,23.86-16.9,19.09-32.55ZM1040.05,684.59c-3.86,13.36-1.64,24.81,9.77,33.41,6.11,4.61,12.05,9.28,13.35-1.65,1.91-16.02-8.36-27.64-23.12-31.76ZM1173.77,698.68c-2.73-2.71-17.83-10.93-20.46-8.32-.67,16.32,11.62,26.89,26.86,28.78,1.03-7.07-1.3-15.4-6.4-20.46ZM1324.16,699.92c10.41,3.77,20.56,6.8,28.75-2.86-7.12-8.85-25.93-10.32-28.75,2.86ZM1483.5,696.13c-8.11-7.53-44.63-5.63-40.26,8.46,2.73,8.8,39.39,6.64,40.26-8.46ZM945.94,692.27c-20.99,5.33-24.47,23.25-19.16,42.23,18.71-5.96,26.83-24,19.16-42.23ZM527.37,763.24c11.83-32.11-4.07-63.65-38.32-69.05-12.04,32.63,3.88,64.07,38.32,69.05ZM665.67,699.97c3.02,19.37,30.59,20.68,44.12,10.54-11.89-16.17-26.24-15.47-44.12-10.54ZM770.49,698.17c-13.61,14.68-9.19,35.82,7.5,45.67,14-12.63,11.52-39.45-7.5-45.67ZM1305.57,714.71c6.49,7.34,29.88,14.69,37.74,5.39-10.78-11.83-24.44-17.6-40.28-12.46-.17,2.63.83,5.14,2.54,7.07ZM404.58,707.63c-.97,26.91,20.02,42.09,45.15,44.12,19.11,1.55,26.79,2.19,18.28-18.28-4.47-10.75-22.03-25.84-33.67-25.84h-29.76ZM1118.74,709.56c-16.52-2.95-36.22,6.87-36.48,24.94,17.53,2.86,34.47-6.4,36.48-24.94ZM598.47,730.64c-8.64-22.23-34.26-16.12-51.82-9.55,8.44,21.09,34.92,17.34,51.82,9.55ZM1045.76,765.22c9.55-21.41,1.43-39.1-18.23-49.86-15.59,18.49-1.83,43.06,18.23,49.86ZM1466.21,723.02c-15-7.6-33.27-12.97-44.14,3.78,7.57,2.64,15.5,8.06,23.93,7.8,3.95-.12,23.7-6.65,20.21-11.58ZM819.22,770.97c12.19-19.78,9.42-42.33-13.38-51.82-12.12,20.87-8.91,41.04,13.38,51.82ZM1316.47,738.32c-6.97-16.42-28.45-20.16-44.15-15.32,3.65,17.61,29.17,20.32,44.15,15.32ZM699.89,727.35c-2.68.17-14.89,1.79-14.97,4.26,7.85,19.9,33.61,28.38,51.8,17.25-6.61-15.57-20.27-22.54-36.83-21.51ZM1283.84,747.92c-5.69-14.96-31.24-22.96-44.15-12.43,8.2,15.53,28.99,16.94,44.15,12.43ZM858.61,738.39c-17.86,13.08-16.12,40.47,1.94,51.91,18.7-13.55,14.53-37.99-1.94-51.91ZM1074.6,763.29c18.78,2.25,33.91-3.39,40.25-22.09-15.8-9.67-36.99,5.15-40.25,22.09ZM1399.04,740.29c9.62,14.15,30.5,23.08,46.03,12.46-12.21-13.92-28.31-17.96-46.03-12.46ZM623.33,759.35c3.43-5.06-8.26-11.74-12.3-13.4-16.47-6.75-29.87-.44-45.19,5.86-.72,4.05,2.62,5.28,5.13,7.32,16.68,13.55,34.63,7.49,52.36.22ZM1377.92,755.63c1.58,8.41,10.95,15.93,18.42,19,3.91,1.61,22.5,7.18,23.8,1.12-9.13-16.38-23.87-22.56-42.22-20.12ZM560.06,792.1c6.05-17.43-1.63-30.28-19.16-34.56-6.35,18.08.17,31.17,19.16,34.56ZM1012.24,759.46c-12.96,20.46,3.97,44.25,24.86,49.92,12.2-20.58-5.56-42.52-24.86-49.92ZM721.34,767.17c9.84,21.23,38.74,26.18,57.54,14.25-9.49-22.98-37.48-22.96-57.54-14.25ZM1537.17,765.3c-26.81-7.45-60.75-5.54-57.39,30.54,26.22,6.7,59.28,4.26,57.39-30.54ZM1435.5,790.18c15.56,1.21,29.5-6.22,29.88-23.08-17.08-7.25-32.49,5.05-29.88,23.08ZM498.61,793.96c-9.84-34.85-57.19-30.11-84.42-19.1-3.59,5.19,15.29,19.35,19.81,21.42,21.49,9.85,43.21,4.08,64.61-2.32ZM1116.81,769.07c-21.75-3-43.39,4.39-46.06,28.78,21.05,2.18,41.86-6.32,46.06-28.78ZM590.77,805.54c6.19-17.1-.06-32.64-19.16-34.56-5.65,17.57,1.69,29.98,19.16,34.56ZM602.34,778.69c5.36,26.61,41.04,28.97,61.37,18.21-11.34-24.99-38.04-26.3-61.37-18.21ZM761.67,799.8c-2.16,2.98,7.08,9.47,9.32,10.81,15.9,9.54,35.41,8.62,50.2-2.24-13.19-21.67-39.33-17.92-59.51-8.57ZM1368.31,820.88c-3.67-17.86-26-23.33-42.22-21.1,7.52,16.99,24.12,23.61,42.22,21.1ZM1124.5,803.63c-20.77-6.01-46.74-.46-51.84,23.01,21.23,5.52,43.96-1.03,51.84-23.01ZM505.84,804.06c-3.56.57-18.66,7.06-18.67,10.12,12.43,13.43,31.27,8.25,44.08-1.92-6.34-7.25-16.1-9.69-25.41-8.2ZM559.12,803.62v1.92c1.25-.64,1.25-1.28,0-1.92ZM1471.98,817.03c3.95-5.2-16.56-12.75-20.32-13.24-8.97-1.15-17.13.08-23.8,6.54,10.67,13.17,29.61,13.09,44.11,6.69ZM1418.22,828.56c-4.77-18.36-25.56-23.19-42.23-21.09,8.28,17.16,23.53,23.54,42.23,21.09ZM464.09,815.16c-12.16-4.98-20.06-7.15-33.05-3.32-3.99,1.18-28.65,13.33-24.53,18.63,10.31,3.75,19.79,5.29,30.82,3.01,4.38-.9,30.19-13.71,26.76-18.32ZM698.3,820.87c-6.58-16.98-30.84-13.45-42.19-2.85,11.91,13.38,27.77,9.13,42.19,2.85ZM1038.09,861.21c8.11-22.77-5.85-45.34-28.77-49.92-7.27,23.15,6.08,43.73,28.77,49.92ZM542.3,817.51c-4.38.75-25.58,10.81-26.36,13.98,8.25,14.67,32.62,9.83,45.45,3.19,27.56-14.27-2.78-19.96-19.09-17.17ZM857.64,824.77c-9.74-4.86-18.1-8.84-29.56-7.57-4.59.51-28.12,9.51-24.17,15.18,15.08,8.01,27.7,9.55,43.52,2.29,2.1-.97,12.43-6.8,10.21-9.9ZM1481.84,857.11c19.69,5.26,26.59-32.01,13.81-36.02-16.03-5.02-23.5,25.43-13.81,36.02ZM1279.74,823.06c-24.37-2.29-46.86,9.32-45.82,36.23,24.28,3.33,52.06-7.88,45.82-36.23ZM1532.96,827.16c-16.23,2.09-28.07,11.99-20.78,29.37,12.01,2.88,32.16,1.24,34.56-13.67,2.34-14.59.26-17.52-13.78-15.71ZM455.91,834.79c-12.99,2.03-27.42,12.06-37.86,19.7,24.04,22.13,61.12,12.91,84.43-5.84-7.63-15.48-31.58-16.2-46.57-13.86ZM586.47,834.8c-3.94.22-22.57,6.17-22.51,10.1,11.3,9.74,23.78,11.07,37.18,4.58,2.81-1.36,8.93-3.51,6.04-7.51-5.5-3.78-13.95-7.54-20.7-7.16ZM1333.48,834.61c-24.54-1.79-42.84,11.95-38.13,38.13,22.64,2.27,47.24-13.33,38.13-38.13ZM1461.54,834.97c-17.86.95-33.69,15.18-22.3,33,18.25.69,36.06-16.5,22.3-33ZM1377.83,838.25c-23.94.42-36.28,14.72-30.63,38.32,22.27.3,38.69-15.71,30.63-38.32ZM1423.75,840.32c-21.74-1-41.85,13.85-32.53,37.33,22.1,3.92,41.42-15.33,32.53-37.33ZM519.76,863.14c-15.83-5.44-34.1,1.06-42.23,15.32,15.09,4.91,35.6.39,42.23-15.32ZM652.25,914.96c21.16-5.88,34.97-28.28,26.83-49.91-21.05,8.07-34.36,27-26.83,49.91ZM556.24,872.75c-14.8-4.32-28.97-1.45-41.27,7.66-2.13,1.58-12.22,11.06-10.55,13.42,19.23,6.25,42.75-2.96,51.82-21.08ZM1535.32,878.52c-11.6-7.69-22.69-10.39-36.46-5.77-4.98,6.98,34.25,22.91,36.46,5.77ZM703.41,872.92c-10.71,8.89-17.44,26.59-8.74,38.95,7.5,10.64,18.4-11.6,19.08-18.97.54-5.9-2.38-22.14-10.34-19.98ZM598.49,922.65c19.1-.31,36.42-16.57,38.19-35.75.4-4.32,1.49-9.31-2.65-12.16-23.78,6.63-39.56,21.45-35.53,47.91ZM592.71,876.58c-23.54-1.64-42.39,14.05-47.98,36.46,21.82.74,44.74-13.68,47.98-36.46ZM738.59,880.41c-12.52,3.32-18.76,23.84-8.36,32.51,14.34-2.84,14.27-21.82,8.36-32.51ZM1471.44,884.67c-14.47,3.31-1.94,12.86,5.84,16.35,9.45,4.25,22.37,6.59,31.17-.49-6.21-12.85-23.48-18.96-37.01-15.86ZM1203.2,890c-18.1,4.71-30.08,32.44-18.23,47.95,17.14-10.09,24.14-28.82,18.23-47.95ZM1291.51,934.15c3.33-24.18-14.7-42.21-38.38-42.24-2.27,24.73,14.98,40.01,38.38,42.24ZM1468.13,920.71c-.06-19.3-18.99-29.32-36.46-28.78.3,20.63,18.76,27.51,36.46,28.78ZM1331.18,906.03c-6.67-6.23-19.03-10.07-28.12-10.26-1.69,24.73,14.68,40.22,38.38,42.23,1.31-11.14-1.9-24.16-10.25-31.96ZM1394.41,897.77c-4.54,1.11-1.15,8.03.4,10.86,5.73,10.47,17.53,16.69,29.19,17.06,2.72.09,3.74,1.22,5.71-2.2.29-14.57-23.13-28.71-35.31-25.72ZM815.39,932.23c5.5-14.37.6-27.81-14.32-32.62-9.83,12.1-.49,31.16,14.32,32.62ZM1157.11,955.28c9.5-17.43,15.73-37.05.99-53.72-13.06,14.83-18.24,39.96-.99,53.72ZM1381.74,934.15c-.37-17.43-12.05-33.03-30.71-30.7-.45,17.88,12.56,31.8,30.71,30.7ZM784.05,919.45c-3.15-3.13-19.27-11.42-22.39-8.34-2.97,17.92,10.94,33.47,28.8,32.65.77-8.7.08-17.87-6.41-24.32ZM755.9,957.21c2.88-19.62-12.08-32.15-30.71-32.65-3.7,19.23,12,33.48,30.71,32.65ZM682.94,928.39c-.12,8.83-1.39,14.51,3.85,22.09,5.57,8.08,32.42,24.54,32.73,9.69.4-18.94-18.5-33.5-36.57-31.78ZM595.29,958.47c4.72,4.74,29.14,15.6,31.82,7.09.62-21.63-20.02-35.32-40.16-33.32-.85,8.27,2.44,20.31,8.34,26.23ZM1216.65,947.58c14.84,2.49,36.72,6.65,44.15-10.51-13.07-8.53-40.38-7.48-44.15,10.51ZM675.27,970.64c1.56-22.27-14.15-38.03-36.48-36.49-3.09,22.91,15.44,36.27,36.48,36.49ZM540.38,949.98c-4.39.7-30.14,11.23-30.18,13.93,19.17,20.64,52.57,17.75,72.88,0-10.85-12.63-26.59-16.5-42.7-13.93ZM1281.92,951.45c-16.12-1.25-37.3,3.69-38.38,23.02,17.16,1.44,36.5-3.1,38.38-23.02ZM1280.01,980.23c10.74,1.02,28.25-6.28,31.78-17.16,4.59-14.15-4.46-11.29-13.65-7.9-11.96,4.41-18.22,11.8-18.12,25.05ZM1318.41,984.08c15.57.26,36.23-17,25.94-32.54-16.55,4.97-28.58,13.34-25.94,32.54ZM1387.51,951.43c-15.44-.79-33.05,9.71-29.8,26.93,2.12,3.58,18.25-3.74,21.16-5.8,7.96-5.61,9.96-11.44,8.63-21.13ZM1393.28,982.14c11.72.46,23.16.76,33.28-6.06,7.3-4.92,18.07-22.93,4.25-22.81-17.57.15-36.41,9.44-37.53,28.87ZM608.07,986.02c-15.62-7.31-38.35-5.53-47.98,10.51,14.75,10.39,38.5,4.35,47.98-10.51ZM807.04,984.22c-20.69,16.18-18.72,39.92,1.65,55.48,19.53-14.73,19.71-42.81-1.65-55.48ZM1422.07,1010.93c-9.13-15.27-30.37-23.75-46.03-12.46,12.13,15.99,27.29,19.78,46.03,12.46ZM696.38,1007.09c-9.53-15.2-28.37-12.16-42.26-4.78-3.06,9.68,21.16,11.51,27.76,10.44,5.27-.86,9.14-5.12,14.5-5.66ZM1377.91,1028.22c-.52-19.68-18.81-28.29-36.46-26.86,3.12,19.93,16.51,29.29,36.46,26.86ZM1301.12,1030.14c-2.16-19.14-17.64-29.46-36.47-26.86.36,19.67,18.48,29.34,36.47,26.86ZM771.23,1005.2c-22.28,8.05-28.16,31.13-19.14,51.83,22.2-8.1,28.8-31.18,19.14-51.83ZM1170.59,1039.75c11.27-.97,24.88-9.72,25.01-22.04.11-9.75-3.37-14.37-12.99-11.04-15.6,5.4-15.8,19.32-12.02,33.08ZM567.77,1026.28c17.15,9.85,32.59,11.41,51.19,4.21,3.24-1.25,18.86-8.96,17.9-12.79-13.19-12.21-31.46-12.97-47.94-7.65-3.77,1.22-24.57,11.3-21.16,16.23ZM1337.61,1033.99c.86-19.35-18.71-30.12-36.48-26.86,3.33,18.18,17.91,28.97,36.48,26.86ZM1211.85,1018.68c-16.3,11.14-12.91,31.39,3.62,40.18,14.2-12.64,11.1-29.77-3.62-40.18ZM736.7,1022.49c-21.31-.65-36.09,18.17-36.46,38.37,22.1-.85,35.53-17.13,36.46-38.37ZM640.32,1032.48c-5.01.5-24.13,7.7-22.64,13.96,11.49,9.81,33.82,3.69,40.3-9.54-4.35-4.05-11.92-5-17.67-4.42ZM696.38,1032.08c-15.52-.51-30.74,12.96-30.7,28.78,17.13,1.33,30.31-12.16,30.7-28.78ZM1238.96,1039.86c-9.59,9.79-3.88,23.13,5.53,30.61,5.58,4.44,11.19,8.65,14.56,1.13,6.09-13.61-5.39-30.69-20.09-31.74ZM1374.07,1083.89c1.72-2.38-10.99-14.37-13.41-16.32-14.32-11.58-39.12-20.77-55.69-9.55,14.66,21.76,43.49,35.87,69.1,25.87ZM1304.96,1085.83c4.23-17.46-15.72-33.8-31.77-28.83.01,19.17,13.42,29.15,31.77,28.83Z"/>
    <path class="st3" d="M928.68,1416.03c-4.42,11.98-24.39,51.66-35.93,55.26-20.24,6.33-49.67,2.55-71.68,7.03-18.99,3.87-35.09,15.39-54.11,20.76-14.47,4.08-29.69,4.44-43.31,8.52s-24.7,12.24-40.31,15.36c-41.26,8.25-86.52-6.82-125.16,12.11l45.1-5.4c30.73,2,60.99,6.69,91.2-1.34,12.23-3.25,24.69-11.07,37.45-12.5,4.71-.53,5.25.79.27,2.2-2.57.73-8.85.38-8.92,3.56l26.86-3.81c1.2,1.08-3.65,9.76-4.9,11.39-21.98,28.63-126,28.16-161.21,40.37-14.53,5.04-22.72,13.56-35.42,20.25-13.6,7.17-39.65,14.46-47.17,27.71l-9.51,32.72c14.72-6.62,13.74-19.34,19.76-30.15,4.29-7.71,66.21-38.93,77.79-43.15,25.15-9.18,31.81-2.91,54.19-3.36s35.47-6.42,60.51-1.18c2.91.61,10.6,1.58,11.41,4.88-18.29.11-30.74,18.99-44.74,25.35-13.56,6.16-28.25,7.16-40.66,18.86-1.51,1.42-5,3.85-1.96,5.72,13.59-13.65,32.54-13.39,48.94-20.17,7.83-3.24,12.74-8.49,19.16-11.56,22.45-10.72,45.54-23.48,71.09-23.92,2.56,2.26-16.92,19.42-19.19,22.07-2.88,3.37-5.75,11.93-8.25,13.82s-21.01,10.88-25,12.45c-37.75,14.85-90.29-.58-122.22,33.27,21.49-8.41,43.58-16.61,67.14-16.33l-20.31,36.31c-5.59,7.96-13.33,12.22-20.67,17.72-1.78,1.33-6.02,3.89-.33,3.52,5.31-3.29,12.36-4.45,17.66-7.31,26.51-14.34,17.41-59.51,59.89-44.24-.69,12.23,9.18,20.93,11.77,32.36-5.13-1.68-30.81,15.12-26.86,19.22,6.77-5.36,13.29-12.58,23.01-11.51,1.26,1.16-11.29,17.13,2.87,28.81,3.29,2.72,12.84,8.13,16.33,6.71-15.07-10.82-8.7-22.82-1.97-36.66,26.22,3.31,52.69,8.33,78.76,1.15,6.93,7.08-47.23,35.38-51.71,39.46-16.37,14.91-12.45,42.19,6.63,52.64-24.59-47.79,22.7-53.73,52.06-74.62l2.57-.18c1.42,6.64,7.74,10.78,13.48,13.41-1.14-6.64-7.77-10.74-7.77-18.24,0-21.51,35.11-25.38,50.76-27.7,12.35,14.51-5.63,30.48-9.02,44.37-8.15,33.32,29.79,53.01,11.15,86,6.27-6.36,14.71-12.71,16.21-22.16,4.08-25.76-17.35-36.09-17.3-57.47.04-17.39,21.09-26.38,19.35-42.09-.43-3.88-5.2-8.02-2.98-10.79,5.5-3.1,11.97-2.89,17.74-5.32,14.27-6.02,23.07-17.63,40.98-12.88,6.06,1.61,26.6,21.6,26.85,26.89-18.01,6.55-32.28,18.52-24.97,39.39,6.57.98,1.45-2.33,3.26-7.05,3.96-10.35,21.9-22.81,32.57-23.18,11.12-.39,29.06,18.2,17.91,30.21,3.87,2.8,10.15-5.55,11.07-9.11,4.51-17.38-16.8-22.13-16.79-24.46,16.64-7.94,35.22-20.26,25.89-41.3-2.62-5.91-10.77-10.99-9.58-17.28l40.01,9.46c9.02,17.04,21.24,18.72,14.78,41.54-5.92,20.9-20.86,20.86-31.61,35.58-8.39,11.48-9.63,25.72-16.43,37.33-7.85,13.41-22.28,17.18-21.25,36.36.19,3.64,5.04,20.1,9.68,16.37-11.17-25.04,5.23-29.48,16.95-45.43,7.41-10.08,20.1-44.05,32.15-44.77,10.81-.65,20.86,15.71,31.09,20.58,15.85,7.55,41.96,6.47,54.26,18.69,12.44,12.36,11.84,32.47,1.87,46.15,3.82,3.24,10.51-9.31,11.93-13.02,8.38-22.02-3.64-42.39-24.05-51.67-14.93-6.79-43.72-8.32-53.17-21.71-12.71-18.02,7.48-32.68,7.84-49.92.28-13.76-11.97-20.72-9.73-32.57,2.12-11.2,25.78-14.29,26.79-31.03.27-4.53-2.83-8.53-.93-12.2l32.31,4.17c9.39,7.27,12.24,19.5,10.75,31.16-1.84,14.36-17.54,27.69,2.67,37.97,8.21,4.18,15.9,1.57,22.41,6.33-7.03,12.95-22.7,16.62-18.75,34.16,1.66,7.39,13.35,15.27,20.72,16.71-19.45-17.63,6.53-34.96,16.65-49.7,7.34-.02,15.59,2.56,21.61,6.65,3.61,2.45,16.81,17.47,19.05,21.27,10.18,17.34-2.11,32.56-3.53,49.64-1.72,20.64,12.04,36.73.91,56.58,9.3-4.99,15.7-13.45,16.22-24.22.51-10.47-7.1-22.45-6.96-30.11.27-14.94,15.66-36.1,9.01-53.12,29.1-1.11,58.5,1.87,81.6,21.07l-10.54-14.36c55.86-34.64-16.13-46.85-41.66-58.21-1.72-.77-19.78-8.54-15.96-11.86l92.02.95c12.21,11.04,35.83,21.49,41.38,37.45,4.38,12.6,2,27.15,15.38,36.45l-5.34-34.98c-3.54-20.25-23.22-28.05-37.89-38.92,15.31-4.02,29.98,3.31,44.14,7.7-6.44-5.91-14.59-9.43-22.99-11.55-9.15-2.31-20.9-1.34-27.46-3.25-3.52-1.02-12.07-12.08-17.19-15.44-19.37-12.71-44.92-11.09-66.77-15.78-22.82-4.89-64.24-17.81-69.04-43.26h33.6c1.09,0,12.75,8.49,19.32,9.48,12.72,1.92,27.78-2.7,40.01,2.22,16.65,6.7,20.11,24.88,32.82,34.37,30.83,23.01,64.11-4.9,93.48,6.35,13.45,5.15,16.63,20.64,27.78,27.9,9.3,6.05,23.36,8.37,34.22,9.94l-27.65-16.5c-14.6-11.48-20.75-29.28-41.43-31.52-18.75-2.03-38.44,3.64-57.67,1.99-24.48-2.09-16.39-8.96-28.71-23.12-5.69-6.55-12.76-9.17-18.26-15.32,14.44-.33,28.06-1.11,41.26,5.76l-1.93-5.73,123.85,36.41c-14.45-15.48-39.84-14.75-58.63-21.03-15.28-5.1-26.78-12.56-44.18-17.34-3.08-.85-5.68,2.06-4.7-3.84,34.09-4.54,66.97.61,100.86,1.99l33.51-3.9c-17.31-4.63-33.42,1.18-50.83-.05-14.65-1.03-31.3-7.4-46.05-7.75-16.36-.38-32.83,5.01-49.94,3.91-16.46-1.06-33.1-7.09-49.86-7.72-20.37-.78-49.88,5.86-68.79,1.6-4.31-.97-10.6-6.62-16.2-8.76-9.86-3.78-20-4-30.04-8.36-8.38-3.63-20.63-11.68-26.16-18.94,57.92,7.06,116.76-6.78,174.06,7.34l14.07.34c-18.62-2.94-37.89-10.1-56.64-11.52-29.27-2.21-58.84,1.14-88.27-1.96-34.48-3.64-67-16.39-101.69-19.26-7.63-.63-22.64,1.8-28.57-.23-6.69-2.29-14.16-46.73-16.63-55.37h746.8c-23.24,48.6-53.53,94.65-86.47,137.18-248.58,320.94-678.8,441.72-1060.13,294.29-205.68-79.52-379.64-236.26-481.39-431.47h752.56Z"/>
    <path class="st3" d="M901.8,1615.69h-37.44c-7.51,0-17.19,17.98-24.14,21.94-8.25,4.7-23.23,3.98-30.47,9.85-9.11,7.38-5.22,19.88-20.2,25.86s-45.39,4.19-61.37,1.75c-10.58-1.62-13.22-17.65-16.44-26.74,13.51,1.68,25.93-4.36,33.46-15.49,3.45-5.09,5.88-17.14,10.09-18.71,12.81-4.28,76.95-1.07,77.34-18.55.14-6.24-9.5-13.5-9.55-20.21h43.2c4.51,0,15.83-5.68,21.19-5.52,4.7.14,23.78,8.52,23.9,14.11.2,9.94-23.65,17.33-9.57,31.73Z"/>
    <path class="st3" d="M1193.19,1604.72c9.53-1.12,22.67-.47,31.28,4.11,10.16,5.4,10.21,21.23,18.36,27.72,13.8,10.99,68.14,17.62,74.62,30.96,2.85,5.87.91,25.45-7.33,24.67-3.22-.3-13.24-7.16-18.07-8.87-21.4-7.57-44.05-1.39-63.72-13.07-7.86-4.67-12.76-12.35-20.53-15.95s-20.35-2.98-23.79-5.01c-1.12-.66-15.17-19.07-15.82-20.64-6.77-16.56,11.63-22.34,24.99-23.92Z"/>
    <path class="st3" d="M1187.5,1545c6.42,35.43,45.81,43.09,75.57,50.18,24.75,5.9,56.83,5.36,74.52,24.33-20.36.45-64.74,6.49-81.33-6-3.89-2.93-6.3-8.79-10.78-12.26-11.54-8.94-30.14-6.18-44.15-11.52-9.68-3.69-13.31-11.19-24.16-14.23-11.6-3.25-23.1-.04-32.95-3.53-7.23-2.56-35.64-18.36-44.06-23.14-7.71-4.37-45.34-30.94-27.49-39.81,4.9-2.43,31.01,16.95,37.69,20.01,24.41,11.18,50.97,12.32,77.13,15.98Z"/>
    <path class="st3" d="M903.72,1510.12l-26.4,12.93c-24.57,8.67-53.12,13.34-74.08,29.59-2.61,2.02-3.94,6.22-6.37,7.06-7.83,2.73-28.87-2.44-39.98-1.58-11.65.91-23.39,6.86-34.49,7.72-12.44.96-21.67-3.36-33.68-3.93l56.29-17.6c3.72-3.25,11.04-6.56,14.07-9.92,12.01-13.37.47-23.28,28.49-22.35,23.72.79,47.06,5.75,71.12,3.88,15.05-1.17,29.58-7.98,45.04-5.81Z"/>
    <path class="st3" d="M1011.23,1611.83c5.25-8.18,1.85-17.66,2.71-24.07.33-2.48,6.09-5.55,6.5-9.8.61-6.22-14.47-14.63-7.38-26.19,4.36-7.12,27.63-9.25,34.62-6.11,5.81,2.6,6.45,11.11,9.61,15.35,6.45,8.67,25.59,17.84,24.95,28.63-.75,12.6-22.37,22.66-30.11,31.52l-40.9-9.32Z"/>
    <path class="st3" d="M988.19,1581.16c.12,5.91-6.64,6.03-9.38,10.73-7.82,13.45,5.04,16.56,7.07,23.23,1.25,4.12-.23,8.52,1.84,13.52,4.55,11.01,27.43,18.33,5.26,35.03-19.25,14.5-17.11-5.98-28.8-17.26-10.38-10.02-28.32-10.08-36.9-22.07,5.38-7.67,1.78-16.62,5.09-25.11,5.84-14.97,41.6-28.38,55.81-18.07Z"/>
    <path class="st3" d="M958.89,1522.08c16.89-2.89,33.45,3.33,28.89,23.14-4.15,17.99-42.77,21.01-56.21,30.06l-25.88-12.38c18.74-10.83,30.41-36.91,53.21-40.81Z"/>
    <path class="st3" d="M869.69,1633.47c5.04-5.49,40.22-6.22,42.8-2.55,9.35,13.29-25.95,25.42-34.81,24.96-6.91-.36-13.07-16.88-7.99-22.41Z"/>
    <path class="st3" d="M786.62,1506.26c.02-2.93,5.76-3.57,8.12-4.35,27.79-9.22,55.58-14,85.01-12.93,2.32.09,7.15-1.44,6.69,1.9-9.31,2.76-17.95,7.46-27.33,10.12-4.54,1.29-18.09,5.26-21.61,5.26h-50.87Z"/>
    <path class="st3" d="M757.82,1604.15c6.94-14.92,22.91-21.99,37.83-26.57l13.78,14.46c1.79,6.6-8.43,8.53-13.11,9.35s-36.87,3.97-38.5,2.76Z"/>
    <path class="st3" d="M1180.17,1531.2c-15.39.09-30.91-3.21-44.77-9.92l-26.25-16.92c24.54-1.42,53.06,10.37,71.02,26.84Z"/>
    <path class="st3" d="M880.68,1542.75c.02,25.86-36.36,14.23-53.75,19.17,10.97-16.14,35.61-19.13,53.75-19.17Z"/>
    <path class="st3" d="M855.72,1657.95l-38.34,14.4c5.97-17.92,22.06-19.17,38.34-14.4Z"/>
    <path class="st3" d="M1168.65,1648.31c-5.51,1.07-18.73-3.89-17.27-10.5,1.79-8.12,19.85,8.2,17.27,10.5Z"/>
    <path class="st3" d="M1162.92,1600.33l-3.85-15.35c10.68.67,13.56,10.46,3.85,15.35Z"/>
    <path class="st3" d="M734.77,1623.38c2.87,2.89-8.89,9.53-11.47,8.65l11.47-8.65Z"/>
    <rect class="st3" x="1295.37" y="1542.76" width="5.74" height="1.88"/>
  </g>
  <text>
    <textPath startOffset="10404.3%" xlink:href="#path"><tspan class="st2"><tspan x="0" y="0">TRUST - INVEST - PROSPER</tspan></tspan>
    </textPath></text>
  <path class="st3" d="M93.65,1194.29c16.69,73.83,42.26,144.28,75.53,210.19h1642.88c33.27-65.91,58.84-136.36,75.53-210.19H93.65Z"/>
  <g>
    <path class="st0" d="M196.83,1211.87h25.41c6.87,0,12.15.62,15.85,1.87,3.69,1.25,6.47,3.04,8.33,5.39,1.86,2.35,3.12,5.2,3.77,8.54s.99,8.52.99,15.52v9.75c0,7.14-.64,12.35-1.92,15.63-1.28,3.27-3.62,5.79-7.04,7.54-3.42,1.75-7.88,2.63-13.39,2.63h-6.77v45.08h-25.23v-111.94ZM222.06,1231.03v28.49c.72.05,1.34.07,1.86.07,2.32,0,3.92-.66,4.82-1.97.9-1.31,1.35-4.04,1.35-8.19v-9.2c0-3.83-.52-6.31-1.56-7.47-1.04-1.15-3.2-1.73-6.47-1.73Z"/>
    <path class="st0" d="M258.43,1211.87h17.86c11.9,0,19.96.53,24.18,1.59,4.21,1.06,7.65,3.77,10.31,8.12,2.66,4.36,3.98,11.3,3.98,20.85,0,8.71-.94,14.57-2.82,17.56-1.88,3-5.57,4.79-11.09,5.39,4.99,1.43,8.35,3.34,10.07,5.74,1.72,2.4,2.79,4.6,3.21,6.6.42,2,.63,7.53.63,16.56v29.52h-23.43v-37.2c0-5.99-.41-9.7-1.23-11.13-.82-1.43-2.97-2.14-6.44-2.14v50.47h-25.23v-111.94ZM283.66,1231.03v24.89c2.84,0,4.82-.45,5.96-1.35,1.14-.9,1.71-3.81,1.71-8.75v-6.15c0-3.55-.55-5.88-1.65-6.98s-3.11-1.66-6.02-1.66Z"/>
    <path class="st0" d="M368.13,1211.87l14.43,111.94h-25.78l-1.35-20.12h-9.02l-1.52,20.12h-26.08l12.87-111.94h36.46ZM354.76,1283.85c-1.28-12.68-2.56-28.35-3.84-47.02-2.57,21.43-4.18,37.11-4.84,47.02h8.68Z"/>
    <path class="st0" d="M444.72,1253.08h-25.23v-10.16c0-6.41-.24-10.42-.72-12.03-.48-1.61-1.62-2.42-3.42-2.42-1.56,0-2.62.69-3.18,2.07-.56,1.38-.84,4.93-.84,10.65v53.72c0,5.02.28,8.33.84,9.92.56,1.59,1.68,2.39,3.36,2.39,1.84,0,3.09-.9,3.75-2.7.66-1.8.99-5.3.99-10.51v-13.28h-5.09v-17.01h29.54v60.08h-15.85l-2.33-8.02c-1.72,3.46-3.89,6.05-6.51,7.78-2.62,1.73-5.71,2.59-9.26,2.59-4.24,0-8.21-1.19-11.9-3.56-3.7-2.37-6.51-5.31-8.42-8.82-1.92-3.5-3.12-7.18-3.6-11.03-.48-3.85-.72-9.62-.72-17.32v-33.26c0-10.69.5-18.46,1.5-23.3,1-4.84,3.87-9.28,8.6-13.31,4.73-4.03,10.85-6.05,18.37-6.05s13.52,1.75,18.4,5.25c4.87,3.5,8.05,7.66,9.53,12.48,1.48,4.82,2.22,11.81,2.22,20.98v4.84Z"/>
    <path class="st0" d="M498.1,1211.87l14.43,111.94h-25.78l-1.35-20.12h-9.02l-1.52,20.12h-26.08l12.87-111.94h36.46ZM484.73,1283.85c-1.28-12.68-2.56-28.35-3.84-47.02-2.57,21.43-4.18,37.11-4.84,47.02h8.68Z"/>
    <path class="st0" d="M560.85,1211.87v22.4h-14.98v89.54h-25.23v-89.54h-14.92v-22.4h55.13Z"/>
    <path class="st0" d="M624.6,1211.87v111.94h-25.23v-47.02h-7.55v47.02h-25.23v-111.94h25.23v40.03h7.55v-40.03h25.23Z"/>
    <path class="st0" d="M659.96,1211.87v111.94h-25.23v-111.94h25.23Z"/>
    <path class="st0" d="M750.61,1260.62h-25.23v-19.46c0-5.66-.27-9.19-.81-10.59-.54-1.4-1.73-2.1-3.57-2.1-2.08,0-3.4.85-3.95,2.56-.56,1.71-.84,5.39-.84,11.06v51.99c0,5.44.28,8.99.84,10.65.56,1.66,1.82,2.49,3.77,2.49s3.11-.83,3.69-2.5c.58-1.66.87-5.57.87-11.71v-14.07h25.23v4.36c0,11.59-.71,19.8-2.13,24.65-1.42,4.85-4.55,9.09-9.41,12.74-4.85,3.65-10.84,5.47-17.95,5.47s-13.48-1.54-18.28-4.63c-4.79-3.09-7.97-7.36-9.53-12.83s-2.34-13.68-2.34-24.65v-32.7c0-8.07.24-14.12.72-18.15.48-4.03,1.91-7.92,4.28-11.65,2.38-3.73,5.67-6.67,9.89-8.82,4.21-2.14,9.06-3.21,14.53-3.21,7.43,0,13.56,1.66,18.4,4.97,4.83,3.31,8.01,7.45,9.53,12.4,1.52,4.95,2.28,12.65,2.28,23.09v10.63Z"/>
    <path class="st0" d="M817.31,1277.42c0,11.25-.23,19.21-.69,23.89-.46,4.68-1.9,8.95-4.31,12.83s-5.68,6.84-9.8,8.92-8.91,3.11-14.38,3.11-9.86-.98-13.99-2.94c-4.13-1.96-7.46-4.9-9.98-8.82-2.52-3.92-4.01-8.18-4.49-12.79s-.72-12.68-.72-24.2v-19.15c0-11.25.23-19.21.69-23.89.46-4.68,1.9-8.95,4.31-12.83s5.68-6.85,9.8-8.92,8.91-3.11,14.38-3.11,9.86.98,13.99,2.94c4.13,1.96,7.46,4.9,9.98,8.82,2.52,3.92,4.01,8.18,4.49,12.79.48,4.61.72,12.68.72,24.2v19.15ZM792.08,1240.64c0-5.21-.25-8.54-.75-9.99-.5-1.45-1.53-2.18-3.09-2.18-1.32,0-2.33.59-3.03,1.76-.7,1.18-1.05,4.64-1.05,10.41v52.27c0,6.5.23,10.51.69,12.03.46,1.52,1.53,2.28,3.21,2.28s2.82-.88,3.3-2.63c.48-1.75.72-5.92.72-12.51v-51.44Z"/>
    <path class="st0" d="M855.65,1268.29v19.29h-31.82v-19.29h31.82Z"/>
    <path class="st0" d="M920.49,1277.42c0,11.25-.23,19.21-.69,23.89-.46,4.68-1.9,8.95-4.31,12.83-2.42,3.87-5.68,6.84-9.8,8.92-4.12,2.07-8.91,3.11-14.38,3.11s-9.86-.98-13.99-2.94c-4.13-1.96-7.46-4.9-9.98-8.82-2.52-3.92-4.01-8.18-4.49-12.79s-.72-12.68-.72-24.2v-19.15c0-11.25.23-19.21.69-23.89.46-4.68,1.9-8.95,4.31-12.83,2.42-3.87,5.68-6.85,9.8-8.92,4.11-2.07,8.91-3.11,14.38-3.11,5.19,0,9.86.98,13.99,2.94,4.13,1.96,7.46,4.9,9.98,8.82,2.52,3.92,4.01,8.18,4.49,12.79s.72,12.68.72,24.2v19.15ZM895.26,1240.64c0-5.21-.25-8.54-.75-9.99-.5-1.45-1.53-2.18-3.09-2.18-1.32,0-2.33.59-3.03,1.76-.7,1.18-1.05,4.64-1.05,10.41v52.27c0,6.5.23,10.51.69,12.03.46,1.52,1.53,2.28,3.21,2.28s2.82-.88,3.29-2.63c.48-1.75.72-5.92.72-12.51v-51.44Z"/>
    <path class="st0" d="M929.9,1211.87h25.41c6.87,0,12.15.62,15.85,1.87,3.69,1.25,6.47,3.04,8.33,5.39,1.86,2.35,3.12,5.2,3.77,8.54.66,3.34.99,8.52.99,15.52v9.75c0,7.14-.64,12.35-1.92,15.63-1.28,3.27-3.62,5.79-7.04,7.54-3.42,1.75-7.88,2.63-13.39,2.63h-6.77v45.08h-25.23v-111.94ZM955.12,1231.03v28.49c.72.05,1.34.07,1.86.07,2.32,0,3.92-.66,4.82-1.97.9-1.31,1.35-4.04,1.35-8.19v-9.2c0-3.83-.52-6.31-1.56-7.47-1.04-1.15-3.2-1.73-6.47-1.73Z"/>
    <path class="st0" d="M991.49,1211.87h42.06v22.4h-16.84v21.23h15.76v21.3h-15.76v24.61h18.51v22.4h-43.74v-111.94Z"/>
    <path class="st0" d="M1042.49,1211.87h17.86c11.9,0,19.96.53,24.18,1.59,4.21,1.06,7.65,3.77,10.31,8.12,2.66,4.36,3.99,11.3,3.99,20.85,0,8.71-.94,14.57-2.82,17.56-1.88,3-5.57,4.79-11.08,5.39,4.99,1.43,8.35,3.34,10.07,5.74,1.72,2.4,2.79,4.6,3.21,6.6.42,2,.63,7.53.63,16.56v29.52h-23.43v-37.2c0-5.99-.41-9.7-1.23-11.13-.82-1.43-2.97-2.14-6.44-2.14v50.47h-25.23v-111.94ZM1067.71,1231.03v24.89c2.84,0,4.82-.45,5.96-1.35,1.14-.9,1.71-3.81,1.71-8.75v-6.15c0-3.55-.55-5.88-1.65-6.98s-3.11-1.66-6.02-1.66Z"/>
    <path class="st0" d="M1152.18,1211.87l14.43,111.94h-25.78l-1.35-20.12h-9.02l-1.52,20.12h-26.08l12.87-111.94h36.46ZM1138.81,1283.85c-1.28-12.68-2.56-28.35-3.84-47.02-2.57,21.43-4.18,37.11-4.84,47.02h8.68Z"/>
    <path class="st0" d="M1214.94,1211.87v22.4h-14.98v89.54h-25.23v-89.54h-14.92v-22.4h55.13Z"/>
    <path class="st0" d="M1245.91,1211.87v111.94h-25.23v-111.94h25.23Z"/>
    <path class="st0" d="M1316.02,1211.87l-12.84,111.94h-38.32l-14.58-111.94h26.6c3.09,30.84,5.3,56.93,6.62,78.27,1.3-21.57,2.69-40.72,4.15-57.45l1.75-20.82h26.6Z"/>
    <path class="st0" d="M1320.27,1211.87h42.06v22.4h-16.84v21.23h15.76v21.3h-15.76v24.61h18.51v22.4h-43.74v-111.94Z"/>
    <path class="st0" d="M1446.35,1245.75h-23.43v-8.3c0-3.87-.3-6.34-.9-7.4-.6-1.06-1.6-1.59-3-1.59-1.52,0-2.67.71-3.45,2.15s-1.17,3.6-1.17,6.5c0,3.74.44,6.55,1.31,8.44.84,1.89,3.21,4.17,7.13,6.84,11.23,7.69,18.3,14,21.22,18.93,2.92,4.93,4.37,12.88,4.37,23.85,0,7.98-.81,13.85-2.43,17.63s-4.74,6.95-9.38,9.51c-4.63,2.56-10.03,3.84-16.18,3.84-6.75,0-12.51-1.48-17.29-4.42-4.77-2.95-7.9-6.71-9.38-11.27s-2.22-11.04-2.22-19.43v-7.33h23.43v13.62c0,4.2.33,6.89.99,8.09.66,1.2,1.83,1.8,3.5,1.8s2.93-.76,3.75-2.28c.82-1.52,1.23-3.78,1.23-6.78,0-6.59-.78-10.9-2.34-12.93-1.6-2.03-5.53-5.42-11.8-10.16-6.27-4.79-10.43-8.27-12.46-10.44-2.04-2.17-3.73-5.16-5.06-8.99-1.34-3.83-2.01-8.71-2.01-14.66,0-8.57.95-14.84,2.85-18.81,1.9-3.96,4.96-7.06,9.2-9.3,4.23-2.24,9.35-3.35,15.34-3.35,6.55,0,12.13,1.22,16.75,3.67,4.61,2.44,7.67,5.52,9.17,9.23,1.5,3.71,2.25,10.01,2.25,18.91v4.42Z"/>
    <path class="st0" d="M1514,1277.42c0,11.25-.23,19.21-.69,23.89-.46,4.68-1.9,8.95-4.31,12.83s-5.68,6.84-9.8,8.92-8.91,3.11-14.38,3.11-9.86-.98-13.99-2.94c-4.13-1.96-7.46-4.9-9.98-8.82-2.52-3.92-4.01-8.18-4.49-12.79s-.72-12.68-.72-24.2v-19.15c0-11.25.23-19.21.69-23.89.46-4.68,1.9-8.95,4.31-12.83s5.68-6.85,9.8-8.92,8.91-3.11,14.38-3.11c5.19,0,9.86.98,13.99,2.94,4.13,1.96,7.46,4.9,9.98,8.82,2.52,3.92,4.01,8.18,4.49,12.79s.72,12.68.72,24.2v19.15ZM1488.77,1240.64c0-5.21-.25-8.54-.75-9.99-.5-1.45-1.53-2.18-3.09-2.18-1.32,0-2.33.59-3.03,1.76-.7,1.18-1.05,4.64-1.05,10.41v52.27c0,6.5.23,10.51.69,12.03.46,1.52,1.53,2.28,3.21,2.28s2.82-.88,3.3-2.63c.48-1.75.72-5.92.72-12.51v-51.44Z"/>
    <path class="st0" d="M1582.3,1260.62h-25.23v-19.46c0-5.66-.27-9.19-.81-10.59-.54-1.4-1.73-2.1-3.57-2.1-2.08,0-3.4.85-3.95,2.56-.56,1.71-.84,5.39-.84,11.06v51.99c0,5.44.28,8.99.84,10.65.56,1.66,1.82,2.49,3.77,2.49s3.11-.83,3.69-2.5c.58-1.66.87-5.57.87-11.71v-14.07h25.23v4.36c0,11.59-.71,19.8-2.13,24.65-1.42,4.85-4.55,9.09-9.41,12.74-4.85,3.65-10.84,5.47-17.95,5.47s-13.48-1.54-18.28-4.63c-4.79-3.09-7.97-7.36-9.53-12.83-1.56-5.46-2.34-13.68-2.34-24.65v-32.7c0-8.07.24-14.12.72-18.15.48-4.03,1.91-7.92,4.28-11.65,2.38-3.73,5.67-6.67,9.89-8.82,4.21-2.14,9.06-3.21,14.53-3.21,7.43,0,13.56,1.66,18.4,4.97,4.83,3.31,8.01,7.45,9.53,12.4,1.52,4.95,2.28,12.65,2.28,23.09v10.63Z"/>
    <path class="st0" d="M1616.58,1211.87v111.94h-25.23v-111.94h25.23Z"/>
    <path class="st0" d="M1626.7,1211.87h42.06v22.4h-16.84v21.23h15.76v21.3h-15.76v24.61h18.51v22.4h-43.74v-111.94Z"/>
    <path class="st0" d="M1726.89,1211.87v22.4h-14.98v89.54h-25.23v-89.54h-14.92v-22.4h55.13Z"/>
    <path class="st0" d="M1789.45,1211.87l-18.4,71.42v40.52h-23.37v-40.52l-17.74-71.42h23.17c3.62,21.85,5.66,36.55,6.13,44.11,1.4-11.94,3.74-26.65,7.03-44.11h23.17Z"/>
  </g>
  <g>
    <path class="st1" d="M483.43,1391.1h-13.83l-13.05-16.8-2.61,3.1v13.7h-11.26v-41.98h11.26v19.02l15.6-19.02h13.05l-17.07,19.43,17.92,22.55Z"/>
    <path class="st1" d="M537.35,1375.91c0,5.19-1.64,9.16-4.93,11.93-3.28,2.76-8.12,4.14-14.51,4.14s-11.23-1.38-14.5-4.14c-3.27-2.76-4.91-6.73-4.91-11.9v-26.81h11.32v26.19c0,2.91.64,5.08,1.91,6.51,1.27,1.43,3.33,2.14,6.19,2.14s4.87-.69,6.17-2.06c1.3-1.37,1.95-3.57,1.95-6.6v-26.19h11.32v26.78Z"/>
    <path class="st1" d="M589.52,1391.1h-31.49v-41.98h11.26v33.86h20.23v8.12Z"/>
    <path class="st1" d="M641.39,1377.91c0,4.13-1.82,7.5-5.47,10.08-3.65,2.58-8.6,3.88-14.85,3.88-3.62,0-6.77-.31-9.46-.92s-5.2-1.39-7.55-2.33v-10.06h1.23c2.33,1.79,4.93,3.16,7.81,4.12,2.88.96,5.65,1.44,8.31,1.44.68,0,1.58-.06,2.7-.17,1.11-.11,2.02-.3,2.73-.56.86-.34,1.57-.76,2.13-1.27.56-.51.83-1.26.83-2.25,0-.92-.41-1.72-1.22-2.38s-2-1.18-3.56-1.54c-1.64-.38-3.38-.73-5.2-1.06-1.83-.33-3.54-.75-5.15-1.25-3.68-1.15-6.32-2.7-7.93-4.67-1.61-1.96-2.42-4.4-2.42-7.32,0-3.91,1.82-7.1,5.47-9.57,3.65-2.47,8.33-3.71,14.06-3.71,2.87,0,5.71.27,8.52.8,2.8.54,5.23,1.21,7.29,2.02v9.67h-1.2c-1.76-1.35-3.91-2.49-6.46-3.4-2.55-.91-5.16-1.37-7.81-1.37-.94,0-1.87.06-2.8.18-.93.12-1.82.35-2.68.69-.76.28-1.42.71-1.96,1.28-.55.57-.82,1.23-.82,1.96,0,1.11.44,1.96,1.32,2.55.88.59,2.54,1.13,4.98,1.62,1.6.32,3.14.63,4.62.93,1.47.3,3.06.71,4.76,1.24,3.34,1.05,5.81,2.49,7.4,4.3,1.59,1.81,2.39,4.17,2.39,7.06Z"/>
    <path class="st1" d="M698.4,1391.1h-11.26v-18.5h-16.62v18.5h-11.26v-41.98h11.26v15.37h16.62v-15.37h11.26v41.98Z"/>
    <path class="st1" d="M751.27,1391.1h-31.58v-41.98h31.58v8.12h-20.38v7.25h18.91v8.12h-18.91v10.38h20.38v8.12Z"/>
    <path class="st1" d="M811.62,1391.1h-13.83l-13.05-16.8-2.61,3.1v13.7h-11.26v-41.98h11.26v19.02l15.6-19.02h13.05l-17.06,19.43,17.92,22.55Z"/>
    <path class="st1" d="M867.65,1391.1h-11.63l-3.04-8.49h-16.16l-3.04,8.49h-11.35l16.13-41.98h12.96l16.13,41.98ZM850.28,1374.92l-5.37-15.04-5.37,15.04h10.74Z"/>
    <path class="st1" d="M926.12,1391.1h-13.75l-11.88-15.39h-5.22v15.39h-11.2v-41.98h18.88c2.58,0,4.8.14,6.66.42,1.86.28,3.6.89,5.22,1.83,1.64.94,2.95,2.16,3.91,3.65s1.45,3.37,1.45,5.62c0,3.1-.75,5.63-2.24,7.58s-3.63,3.58-6.41,4.88l14.57,17.99ZM908.56,1361.98c0-1.05-.22-1.96-.67-2.71-.45-.75-1.22-1.34-2.32-1.78-.76-.3-1.65-.48-2.67-.55-1.02-.07-2.2-.1-3.55-.1h-4.08v11.31h3.46c1.8,0,3.3-.08,4.52-.25,1.21-.17,2.23-.55,3.05-1.16.78-.58,1.35-1.23,1.71-1.93.36-.71.54-1.65.54-2.83Z"/>
    <path class="st1" d="M991.9,1376.5h-22.37v-8.12h22.37v8.12Z"/>
    <path class="st1" d="M1087.29,1391.1h-11.2v-28.11l-12.09,18.24h.23l-12.09-18.24v28.11h-10.61v-41.98h13.08l9.82,16.06,9.79-16.06h13.08v41.98Z"/>
    <path class="st1" d="M1148.93,1391.1h-11.63l-3.04-8.49h-16.16l-3.04,8.49h-11.35l16.13-41.98h12.96l16.13,41.98ZM1131.55,1374.92l-5.37-15.04-5.37,15.04h10.74Z"/>
    <path class="st1" d="M1205.05,1391.1h-10.85l-18.53-28.81v28.81h-10.32v-41.98h13.46l15.92,24.05v-24.05h10.32v41.98Z"/>
    <path class="st1" d="M1264.96,1388.71c-1.96.73-4.54,1.46-7.77,2.18-3.22.72-6.44,1.09-9.65,1.09-7.43,0-13.24-1.94-17.45-5.82-4.2-3.88-6.3-9.24-6.3-16.08s2.12-11.78,6.36-15.78c4.24-3.99,10.16-5.99,17.74-5.99,2.87,0,5.61.25,8.21.75,2.6.5,5.49,1.49,8.68,2.97v9.84h-1.26c-.55-.39-1.35-.95-2.4-1.68-1.06-.72-2.07-1.34-3.05-1.85-1.13-.6-2.46-1.12-3.97-1.55-1.52-.43-3.12-.65-4.82-.65-1.99,0-3.8.28-5.43.85-1.62.56-3.08,1.43-4.37,2.59-1.23,1.13-2.2,2.56-2.92,4.3-.71,1.74-1.07,3.75-1.07,6.02,0,4.64,1.28,8.2,3.84,10.66,2.56,2.46,6.34,3.69,11.35,3.69.43,0,.9,0,1.42-.03s.99-.05,1.42-.08v-8.23h-8.71v-7.92h20.14v20.72Z"/>
    <path class="st1" d="M1325.54,1391.1h-11.63l-3.04-8.49h-16.16l-3.04,8.49h-11.35l16.13-41.98h12.96l16.13,41.98ZM1308.16,1374.92l-5.37-15.04-5.37,15.04h10.74Z"/>
    <path class="st1" d="M1373.46,1391.1h-31.49v-41.98h11.26v33.86h20.23v8.12Z"/>
    <path class="st1" d="M1432.84,1370.13c0,6.69-1.99,12.01-5.98,15.94s-9.5,5.91-16.54,5.91-12.52-1.97-16.51-5.91c-3.99-3.94-5.98-9.25-5.98-15.94s1.99-12.08,5.98-16c3.99-3.92,9.49-5.88,16.51-5.88s12.5,1.96,16.51,5.88,6.01,9.25,6.01,16ZM1417.91,1380.76c1.1-1.28,1.91-2.79,2.43-4.52s.79-3.78.79-6.13c0-2.52-.3-4.66-.91-6.43s-1.4-3.2-2.38-4.29c-1-1.13-2.14-1.95-3.45-2.45-1.3-.51-2.65-.76-4.06-.76s-2.77.25-4.03.73c-1.26.49-2.42,1.3-3.47,2.42-.98,1.05-1.78,2.5-2.39,4.36-.62,1.85-.92,4-.92,6.44s.3,4.63.89,6.39c.6,1.76,1.38,3.19,2.36,4.3.98,1.11,2.12,1.93,3.43,2.45,1.31.53,2.69.79,4.13.79s2.82-.27,4.13-.8c1.31-.54,2.45-1.37,3.43-2.5Z"/>
    <path class="st1" d="M1493.62,1391.1h-13.75l-11.88-15.39h-5.22v15.39h-11.2v-41.98h18.88c2.58,0,4.8.14,6.66.42,1.86.28,3.6.89,5.22,1.83,1.64.94,2.95,2.16,3.91,3.65.97,1.49,1.45,3.37,1.45,5.62,0,3.1-.75,5.63-2.24,7.58-1.49,1.96-3.63,3.58-6.41,4.88l14.57,17.99ZM1476.06,1361.98c0-1.05-.22-1.96-.68-2.71-.45-.75-1.22-1.34-2.32-1.78-.76-.3-1.65-.48-2.67-.55-1.02-.07-2.2-.1-3.55-.1h-4.08v11.31h3.46c1.8,0,3.3-.08,4.51-.25,1.21-.17,2.23-.55,3.05-1.16.78-.58,1.35-1.23,1.71-1.93s.54-1.65.54-2.83Z"/>
    <path class="st1" d="M1540.28,1391.1h-31.58v-41.98h31.58v8.12h-20.38v7.25h18.91v8.12h-18.91v10.38h20.38v8.12Z"/>
  </g>
</svg>